PathFileType	4	(X/Y/Z)	C:\Users\Basilio\Documents\Thesis Gigler\squatting_fais\c3dfiles\073\SLS_front_pre4\markers_experimental.trc
DataRate	CameraRate	NumFrames	NumMarkers	Units	OrigDataRate	OrigDataStartFrame	OrigNumFrames
200.000000	200.000000	4	61	mm	200.000000	1162	1329
Frame#	Time	FHD			LBHD			RBHD			C7			T10			CLAV			LSHO			LUUPA			LMUPA			LDUPA			LLEP			LMEP			LRAD			LUL			LRFIN			RSHO			RUPA1			RMUPA			RDUPA			RLEP			RMEP			RRAD			RUL			RUFIN			LASI			RASI			USACR			LSACR			RSACR			LTHI1			LTHI2			LTHI3			LTHI4			LLFC			LMFC			LTIB1			LTIB2			LTIB3			LTIB4			LLMAL			LMMAL			LHEE			LMT1			LMT2			LMT5			RTHI			RTHI2			RTHI3			RTHI4			RLFC			RMFC			RTIB1			RTIB2			RTIB3			RTIB4			RLMAL			RMMAL			RHEE			RMT1			RMT2			RMT5			
		X1	Y1	Z1	X2	Y2	Z2	X3	Y3	Z3	X4	Y4	Z4	X5	Y5	Z5	X6	Y6	Z6	X7	Y7	Z7	X8	Y8	Z8	X9	Y9	Z9	X10	Y10	Z10	X11	Y11	Z11	X12	Y12	Z12	X13	Y13	Z13	X14	Y14	Z14	X15	Y15	Z15	X16	Y16	Z16	X17	Y17	Z17	X18	Y18	Z18	X19	Y19	Z19	X20	Y20	Z20	X21	Y21	Z21	X22	Y22	Z22	X23	Y23	Z23	X24	Y24	Z24	X25	Y25	Z25	X26	Y26	Z26	X27	Y27	Z27	X28	Y28	Z28	X29	Y29	Z29	X30	Y30	Z30	X31	Y31	Z31	X32	Y32	Z32	X33	Y33	Z33	X34	Y34	Z34	X35	Y35	Z35	X36	Y36	Z36	X37	Y37	Z37	X38	Y38	Z38	X39	Y39	Z39	X40	Y40	Z40	X41	Y41	Z41	X42	Y42	Z42	X43	Y43	Z43	X44	Y44	Z44	X45	Y45	Z45	X46	Y46	Z46	X47	Y47	Z47	X48	Y48	Z48	X49	Y49	Z49	X50	Y50	Z50	X51	Y51	Z51	X52	Y52	Z52	X53	Y53	Z53	X54	Y54	Z54	X55	Y55	Z55	X56	Y56	Z56	X57	Y57	Z57	X58	Y58	Z58	X59	Y59	Z59	X60	Y60	Z60	X61	Y61	Z61	

1163	5.81	-168.5246276855469	1703.23779296875	-753.0459594726564	-305.4562988281251	1681.901977539063	-769.795837402344	-320.9422607421876	1657.766723632813	-635.9580078125001	-360.5296325683594	1555.974609375	-704.3334350585939	-421.3354797363282	1222.901489257813	-720.2811889648439	-237.6871948242188	1468.556396484375	-716.9297485351564	-273.8950195312501	1517.849365234375	-861.221374511719	-204.1108551025391	1433.858642578125	-962.5632324218752	-159.5145263671875	1451.115600585938	-945.474548339844	-144.8644714355469	1401.560180664063	-978.2903442382815	-45.13410949707032	1368.512817382813	-992.9569091796877	-48.9550018310547	1313.580444335938	-947.5982666015627	224.7256622314454	1371.4814453125	-905.284851074219	221.4938964843751	1369.728759765625	-980.4403076171877	306.0041503906251	1378.143310546875	-906.129577636719	-245.8609466552735	1494.662231445313	-564.9257812500001	-160.5113830566407	1371.68359375	-479.2825012207032	-119.0233764648438	1390.6123046875	-494.3047180175782	-101.0695190429688	1336.535400390625	-476.4545288085939	-12.66747379302979	1308.807006835938	-480.2059326171876	-25.02267265319825	1259.459228515625	-545.6920776367189	239.1262969970704	1314.301879882813	-605.0834960937501	249.7382049560547	1319.336303710938	-528.7146606445314	328.9291992187501	1322.81982421875	-610.4091796875001	-279.8637390136719	1076.94580078125	-882.4692382812502	-248.5749206542969	1032.031860351563	-635.4066162109376	-443.0118713378907	1121.161987304688	-725.9530639648439	-460.6810913085939	1097.42919921875	-756.8541870117189	-456.5000305175782	1086.983154296875	-701.6604614257814	-256.9995117187501	764.2862548828126	-947.8330688476565	-208.7747039794922	695.7048339843751	-932.2949218750002	-170.6446228027344	705.9667968750001	-902.1087036132815	-226.9003601074219	639.8268432617189	-928.3364868164065	-220.7110748291016	581.9075317382814	-932.091491699219	-228.8243560791016	571.5158081054689	-794.995056152344	-201.4772338867188	379.7244873046876	-889.4713134765627	-262.3692321777344	351.2262573242188	-946.6724853515627	-224.9421844482422	337.5412902832032	-924.4437255859377	-238.8020782470704	258.6082458496094	-895.077087402344	-319.9158020019532	154.0995025634766	-929.5444335937502	-308.6105651855469	171.7243957519532	-844.1165771484377	-384.0911254882814	131.3406677246094	-890.1675415039065	-167.5929260253907	82.97008514404298	-846.7005615234377	-164.3843536376953	85.28562927246095	-885.0936279296877	-201.5370635986329	72.20325469970705	-940.6838989257815	-363.2144165039063	804.624938964844	-582.4756469726564	-332.5031738281251	745.8288574218751	-581.9419555664064	-298.4022216796876	745.1279296875001	-584.3623046875001	-364.6929626464844	672.8886108398439	-610.6281738281251	-356.8289184570313	522.4302978515626	-635.8460083007814	-340.4881286621094	518.6478271484376	-766.5368652343751	-303.0221252441407	367.3509521484376	-728.3781738281251	-333.7737731933594	280.4608459472657	-671.5802001953126	-304.0252380371094	282.5730895996094	-709.1068115234376	-316.4008178710938	239.6606445312501	-747.2946166992189	-366.8321838378907	100.9082641601563	-713.0319213867189	-354.5018310546876	134.2350006103516	-795.178405761719	-433.4254760742189	85.96022033691408	-773.9718017578127	-209.0574798583985	56.46005630493165	-785.7772216796877	-209.4780426025391	50.7526321411133	-745.2308959960939	-253.5573730468751	32.23672485351563	-697.8300170898439	
1164	5.815	-168.723388671875	1703.173095703125	-752.8522338867189	-305.3482666015626	1681.8935546875	-769.5754394531252	-320.8894348144532	1657.632934570313	-635.7860717773439	-360.4626464843751	1555.968017578125	-704.2103271484376	-421.4688720703126	1222.93896484375	-720.3244628906251	-237.7194366455079	1468.514770507813	-716.9151611328126	-273.9546203613282	1517.893188476563	-861.1295166015627	-204.1101531982422	1433.914672851563	-962.4770507812502	-159.5647277832032	1451.207397460938	-945.3311767578127	-144.9241790771485	1401.642456054688	-978.2593994140627	-45.17011642456055	1368.535522460938	-992.9334106445315	-48.98582077026369	1313.590576171875	-947.667663574219	224.6597900390626	1371.397216796875	-905.1047363281252	221.4594421386719	1369.685424804688	-980.3294067382815	305.8750915527344	1377.988159179688	-905.9548950195315	-245.8067932128907	1494.510375976563	-564.8916015625001	-160.5405578613282	1371.4111328125	-479.3598022460939	-119.0318298339844	1390.3359375	-494.3106994628907	-101.0758209228516	1336.2705078125	-476.4662475585939	-12.69327163696289	1308.508178710938	-480.2922973632814	-25.06703567504884	1259.243408203125	-545.8897705078126	239.4815521240235	1313.864135742188	-605.4963989257814	249.688705444336	1319.082397460938	-528.8399047851564	328.8396911621094	1322.749755859375	-610.6466064453126	-280.0159606933594	1076.927001953125	-882.5360107421877	-248.684066772461	1032.004150390625	-635.5726928710939	-443.0818786621095	1121.2119140625	-726.0556030273439	-460.8441162109376	1097.466552734375	-756.9607543945314	-456.6556091308595	1087.019165039063	-701.8041381835939	-257.2605895996094	764.2313842773439	-947.9079589843752	-209.1690826416016	695.6238403320314	-932.2849121093752	-171.00830078125	705.8704223632814	-902.0488281250002	-227.3220977783204	639.7476806640626	-928.3529052734377	-221.2472534179688	581.7613525390626	-932.0086059570315	-229.3046112060547	571.4534301757814	-795.0364379882815	-202.3362121582032	379.6448059082032	-889.427917480469	-263.2397155761719	351.2402038574219	-946.7283935546877	-225.5543212890626	337.4197692871094	-924.017272949219	-239.7942962646485	258.5788879394532	-895.1218261718752	-321.1891174316407	154.207748413086	-929.7139892578127	-309.8674926757813	171.7929992675782	-844.2016601562502	-385.4572753906251	131.5232391357422	-890.4112548828127	-169.0667724609375	82.71677398681642	-846.7115478515627	-165.7020568847657	85.2197723388672	-885.0457153320315	-202.8500976562501	72.1676712036133	-940.6795654296877	-363.3408203125001	804.6682739257815	-582.6064453125001	-332.6889953613282	745.8366088867189	-582.0352172851564	-298.5554809570313	745.1310424804689	-584.4017944335939	-364.9084167480469	672.8822631835939	-610.7451171875001	-356.9661560058594	522.4266967773439	-635.8602905273439	-340.4100036621094	518.6438598632814	-766.1248779296876	-303.0382385253907	367.3947448730469	-728.3576049804689	-333.8615417480469	280.3998107910157	-671.5626831054689	-304.1155700683594	282.5622863769532	-709.1420288085939	-316.4880981445313	239.6317749023438	-747.3674316406251	-366.8584289550782	100.898551940918	-713.0215454101564	-354.6271667480469	134.2581787109375	-795.1544189453127	-433.4326477050782	85.96292114257814	-773.9549560546877	-209.056381225586	56.46114730834962	-785.774353027344	-209.4935607910157	50.75046920776369	-745.2597656250001	-253.5760345458985	32.24762344360352	-697.8333129882814	
1165	5.82	-168.3858947753907	1703.198120117188	-752.6844482421876	-305.2595520019532	1681.895751953125	-769.4389648437502	-320.8019409179688	1657.525634765625	-635.7127685546876	-360.4165954589844	1555.961181640625	-704.1298217773439	-421.5899047851564	1222.93505859375	-720.3948364257814	-237.7444763183594	1468.456909179688	-716.8559570312501	-273.9793090820313	1517.939819335938	-861.0598144531252	-204.2140197753907	1433.991088867188	-962.4396972656252	-159.575927734375	1451.2080078125	-945.2490234375002	-144.9966125488282	1401.698486328125	-978.2139892578127	-45.27096176147462	1368.551879882813	-992.8935546875002	-49.14953994750978	1313.532470703125	-947.6099243164065	224.4534606933594	1371.2421875	-905.2308349609377	221.3330383300782	1369.6083984375	-980.2850341796877	305.8194885253907	1377.722290039063	-905.7832031250002	-245.7299346923829	1494.360473632813	-564.8579101562501	-160.5846557617188	1371.179443359375	-479.4553222656251	-119.028434753418	1390.1005859375	-494.3377380371095	-101.0867614746094	1336.004516601563	-476.5922851562501	-12.67159652709961	1308.228271484375	-480.4638061523439	-25.15475273132325	1259.06201171875	-546.0031127929689	239.3073730468751	1313.626831054688	-605.5012207031251	249.6105346679688	1318.7998046875	-529.0827026367189	328.7827453613282	1322.5185546875	-610.8238525390626	-280.2114562988282	1076.945068359375	-882.7446289062502	-248.8481597900391	1031.981811523438	-635.7070922851564	-443.269744873047	1121.244506835938	-726.1257324218751	-461.0578613281251	1097.533081054688	-757.0533447265626	-456.8428955078126	1087.08642578125	-701.8975219726564	-257.5559387207032	764.1711425781251	-947.9080810546877	-209.4907989501954	695.5413208007814	-932.2437744140627	-171.3748321533203	705.6983032226564	-901.9382324218752	-227.7121276855469	639.6608886718751	-928.2946777343752	-221.8309020996094	581.6433105468751	-931.8803710937502	-230.0214538574219	571.3930053710939	-794.5683593750002	-203.145004272461	379.4536132812501	-889.4812011718752	-263.9987182617188	351.1734619140626	-946.7808837890627	-226.5498352050782	337.3713684082032	-924.133483886719	-240.8352355957032	258.4680786132813	-895.0769653320315	-322.5037231445313	154.3309173583985	-929.8963623046877	-311.1534729003907	171.8863372802735	-844.3261718750002	-386.772918701172	131.8007507324219	-890.5861816406252	-170.4090423583985	82.51519775390626	-846.2620239257815	-167.1126251220703	84.97305297851564	-884.9880981445315	-204.2279357910157	72.03995513916017	-940.6741333007815	-363.5081176757813	804.646423339844	-582.7039184570314	-332.8269653320313	745.8257446289064	-582.1236572265626	-298.7368469238282	745.1091918945314	-584.4859619140626	-365.0714111328126	672.8624877929689	-610.7878417968751	-357.1224365234376	522.4215698242189	-635.9075317382814	-340.5296325683594	519.0871582031251	-766.1800537109376	-303.2339477539063	367.3653259277344	-728.3995361328126	-333.8927917480469	280.3903503417969	-671.6144409179689	-304.1575622558594	282.5596923828126	-709.1564331054689	-316.5867614746094	239.602279663086	-747.3835449218751	-366.8793334960938	100.8955688476563	-713.0422363281251	-354.5748291015626	134.2609100341797	-795.1215820312502	-433.4578552246095	85.9399871826172	-773.9465332031252	-209.0813446044922	56.4613494873047	-785.758972167969	-209.5083770751954	50.75518798828126	-745.2720947265626	-253.6014556884766	32.24437332153321	-697.7922973632814	
1166	5.825	-168.0940704345703	1703.141479492188	-752.5026245117189	-305.2445373535157	1681.911376953125	-769.289001464844	-320.7298583984376	1657.367797851563	-635.5428466796876	-360.3672180175782	1555.96142578125	-704.0465698242189	-421.7139892578126	1222.970092773438	-720.4549560546876	-237.7965087890626	1468.322875976563	-716.8634033203126	-273.9835510253907	1517.963623046875	-861.0054321289065	-204.2586212158204	1434.055786132813	-962.3782958984377	-159.6812133789063	1451.249389648438	-945.205993652344	-145.0428161621094	1401.764282226563	-978.230895996094	-45.40296936035157	1368.5439453125	-992.8530273437502	-49.25185394287111	1313.508544921875	-947.6257934570315	224.3654327392579	1371.082397460938	-904.978454589844	221.2814331054688	1369.55126953125	-980.225769042969	305.6407470703126	1377.745971679688	-905.6870727539065	-245.7145538330079	1494.21337890625	-564.8240966796876	-160.6099395751953	1370.950073242188	-479.491180419922	-119.021224975586	1389.88916015625	-494.3339233398439	-101.1140518188477	1335.7421875	-476.6386718750001	-12.67919349670411	1307.984741210938	-480.5219116210939	-25.22538948059083	1258.848266601563	-546.1612548828126	239.2238006591797	1313.057006835938	-605.5086669921876	249.5853271484376	1318.544921875	-529.2194824218751	328.7562255859376	1322.351806640625	-611.0701904296876	-280.3993530273438	1076.897705078125	-882.8687133789065	-249.0299530029297	1031.981811523438	-635.8714599609376	-443.4337158203126	1121.268188476563	-726.2454223632814	-461.2381286621095	1097.576293945313	-757.1807861328126	-456.9624633789064	1087.124267578125	-702.0297241210939	-257.8831787109376	764.1119995117189	-947.8909912109377	-209.8148651123047	695.4337158203126	-932.1948852539065	-171.8041534423828	705.6033325195314	-901.816589355469	-227.6856384277344	639.6292114257814	-928.5914306640627	-222.2722778320313	581.5488891601564	-931.8757934570315	-230.4953155517579	571.2909545898439	-794.554382324219	-204.012191772461	379.3519897460938	-889.5848388671877	-264.7175598144532	351.1691284179688	-946.8602294921877	-227.4468536376954	337.2252807617188	-924.262390136719	-241.8408966064454	258.3738403320313	-895.2033691406252	-323.5977478027344	154.4380187988282	-930.0696411132815	-312.5385131835938	171.9951477050782	-844.5222778320315	-388.1517944335939	132.0376129150391	-890.802185058594	-171.9330596923828	82.44502258300783	-846.193054199219	-168.3148803710938	84.88455200195314	-884.9852294921877	-205.4868316650391	71.89477539062501	-940.6004028320315	-363.6869201660157	804.6253662109377	-582.8251953125001	-333.0098876953126	745.8261108398439	-582.1695556640626	-298.9009399414063	745.1022949218751	-584.5591430664064	-365.2824707031251	672.8264770507814	-610.8540649414064	-357.2481994628907	522.4249267578126	-636.0208129882814	-340.8813171386719	518.5278930664064	-766.3960571289064	-303.2754821777344	367.3705444335938	-728.4860229492189	-333.9865722656251	280.3810729980469	-671.6602783203126	-304.2453918457032	282.5494995117188	-709.2108154296876	-316.6522521972657	239.585433959961	-747.4014892578126	-366.8841552734376	100.8526763916016	-713.0435180664064	-354.5885314941407	134.2575836181641	-795.1401977539065	-433.4519653320314	85.89440917968751	-773.9479980468752	-209.0613250732422	56.460018157959	-785.7786254882815	-209.391586303711	50.67213821411134	-745.2567138671876	-253.5713958740235	32.23050689697266	-697.8300781250001	
